<svg width="12" height="12" viewBox="0 0 12 12" fill="none" xmlns="http://www.w3.org/2000/svg">
<path d="M6 6C6.51918 6 7.02669 5.84605 7.45837 5.55761C7.89005 5.26917 8.2265 4.8592 8.42518 4.37955C8.62386 3.89989 8.67585 3.37209 8.57456 2.86289C8.47328 2.35369 8.22327 1.88596 7.85616 1.51885C7.48904 1.15173 7.02131 0.901726 6.51211 0.80044C6.00291 0.699154 5.47511 0.751137 4.99546 0.949817C4.5158 1.1485 4.10583 1.48495 3.81739 1.91663C3.52895 2.34831 3.375 2.85583 3.375 3.375C3.375 4.07119 3.65156 4.73887 4.14384 5.23116C4.63613 5.72344 5.30381 6 6 6ZM6 1.5C6.37084 1.5 6.73335 1.60997 7.04169 1.816C7.35004 2.02202 7.59036 2.31486 7.73227 2.65747C7.87419 3.00008 7.91132 3.37708 7.83897 3.7408C7.76663 4.10451 7.58805 4.4386 7.32583 4.70083C7.0636 4.96305 6.72951 5.14163 6.36579 5.21397C6.00208 5.28632 5.62508 5.24919 5.28247 5.10728C4.93986 4.96536 4.64702 4.72504 4.44099 4.4167C4.23497 4.10835 4.125 3.74584 4.125 3.375C4.125 2.87772 4.32254 2.40081 4.67417 2.04918C5.02581 1.69755 5.50272 1.5 6 1.5Z" fill="#559767"/>
<path d="M6.375 6.75H5.625C4.53098 6.75 3.48177 7.1846 2.70818 7.95818C1.9346 8.73177 1.5 9.78098 1.5 10.875C1.5 10.9745 1.53951 11.0698 1.60984 11.1402C1.68016 11.2105 1.77554 11.25 1.875 11.25H10.125C10.2245 11.25 10.3198 11.2105 10.3902 11.1402C10.4605 11.0698 10.5 10.9745 10.5 10.875C10.5 9.78098 10.0654 8.73177 9.29182 7.95818C8.51823 7.1846 7.46902 6.75 6.375 6.75ZM2.2725 10.5C2.36471 9.67524 2.75757 8.91337 3.376 8.35996C3.99444 7.80655 4.7951 7.50039 5.625 7.5H6.375C7.2049 7.50039 8.00556 7.80655 8.62399 8.35996C9.24243 8.91337 9.63529 9.67524 9.7275 10.5H2.2725Z" fill="#559767"/>
</svg>
