<svg width="14" height="14" viewBox="0 0 14 14" fill="none" xmlns="http://www.w3.org/2000/svg">
<path d="M6.95837 7C7.49867 7 8.02684 6.82039 8.47608 6.48388C8.92532 6.14737 9.27547 5.66907 9.48223 5.10947C9.68899 4.54987 9.74309 3.9341 9.63769 3.34004C9.53228 2.74597 9.2721 2.20028 8.89005 1.77199C8.508 1.34369 8.02124 1.05201 7.49132 0.933846C6.9614 0.815679 6.41212 0.876327 5.91295 1.10812C5.41378 1.33991 4.98713 1.73244 4.68695 2.23607C4.38678 2.73969 4.22656 3.3318 4.22656 3.9375C4.22656 4.74973 4.51438 5.52869 5.02669 6.10302C5.539 6.67735 6.23385 7 6.95837 7ZM6.95837 1.75C7.3443 1.75 7.72156 1.8783 8.04245 2.11866C8.36334 2.35903 8.61344 2.70067 8.76113 3.10038C8.90882 3.50009 8.94746 3.93993 8.87217 4.36426C8.79688 4.78859 8.61103 5.17837 8.33814 5.4843C8.06525 5.79022 7.71756 5.99856 7.33905 6.08297C6.96053 6.16737 6.56819 6.12405 6.21164 5.95849C5.85509 5.79292 5.55034 5.51254 5.33593 5.15281C5.12152 4.79308 5.00708 4.37015 5.00708 3.9375C5.00708 3.35734 5.21266 2.80094 5.5786 2.39071C5.94454 1.98047 6.44086 1.75 6.95837 1.75Z" fill="#559767"/>
<path d="M7.34875 7.875H6.56823C5.4297 7.875 4.3378 8.38203 3.53273 9.28455C2.72767 10.1871 2.27539 11.4111 2.27539 12.6875C2.27539 12.8035 2.31651 12.9148 2.38969 12.9969C2.46288 13.0789 2.56215 13.125 2.66565 13.125H11.2513C11.3548 13.125 11.4541 13.0789 11.5273 12.9969C11.6005 12.9148 11.6416 12.8035 11.6416 12.6875C11.6416 11.4111 11.1893 10.1871 10.3842 9.28455C9.57918 8.38203 8.48728 7.875 7.34875 7.875ZM3.07932 12.25C3.17529 11.2878 3.58413 10.3989 4.22773 9.75328C4.87133 9.10764 5.70457 8.75046 6.56823 8.75H7.34875C8.21241 8.75046 9.04565 9.10764 9.68925 9.75328C10.3329 10.3989 10.7417 11.2878 10.8377 12.25H3.07932Z" fill="#559767"/>
</svg>
