<svg width="14" height="14" viewBox="0 0 14 14" fill="none" xmlns="http://www.w3.org/2000/svg">
<path d="M6.95898 7C7.49928 7 8.02745 6.82039 8.47669 6.48388C8.92593 6.14737 9.27608 5.66907 9.48284 5.10947C9.6896 4.54987 9.7437 3.9341 9.6383 3.34004C9.53289 2.74597 9.27271 2.20028 8.89066 1.77199C8.50861 1.34369 8.02185 1.05201 7.49193 0.933846C6.96201 0.815679 6.41273 0.876327 5.91356 1.10812C5.41439 1.33991 4.98774 1.73244 4.68757 2.23607C4.38739 2.73969 4.22717 3.3318 4.22717 3.9375C4.22717 4.74973 4.51499 5.52869 5.0273 6.10302C5.53961 6.67735 6.23446 7 6.95898 7ZM6.95898 1.75C7.34491 1.75 7.72217 1.8783 8.04306 2.11866C8.36395 2.35903 8.61405 2.70067 8.76174 3.10038C8.90943 3.50009 8.94807 3.93993 8.87278 4.36426C8.79749 4.78859 8.61164 5.17837 8.33875 5.4843C8.06586 5.79022 7.71817 5.99856 7.33966 6.08297C6.96114 6.16737 6.5688 6.12405 6.21225 5.95849C5.8557 5.79292 5.55095 5.51254 5.33654 5.15281C5.12213 4.79308 5.00769 4.37015 5.00769 3.9375C5.00769 3.35734 5.21327 2.80094 5.57921 2.39071C5.94515 1.98047 6.44147 1.75 6.95898 1.75Z" fill="#559767"/>
<path d="M7.34924 7.875H6.56872C5.43019 7.875 4.33829 8.38203 3.53322 9.28455C2.72816 10.1871 2.27588 11.4111 2.27588 12.6875C2.27588 12.8035 2.317 12.9148 2.39018 12.9969C2.46337 13.0789 2.56263 13.125 2.66614 13.125H11.2518C11.3553 13.125 11.4546 13.0789 11.5278 12.9969C11.601 12.9148 11.6421 12.8035 11.6421 12.6875C11.6421 11.4111 11.1898 10.1871 10.3847 9.28455C9.57967 8.38203 8.48777 7.875 7.34924 7.875ZM3.07981 12.25C3.17577 11.2878 3.58461 10.3989 4.22822 9.75328C4.87182 9.10764 5.70505 8.75046 6.56872 8.75H7.34924C8.2129 8.75046 9.04614 9.10764 9.68974 9.75328C10.3333 10.3989 10.7422 11.2878 10.8381 12.25H3.07981Z" fill="#559767"/>
</svg>
