<svg width="14" height="14" viewBox="0 0 14 14" fill="none" xmlns="http://www.w3.org/2000/svg">
<path d="M6.95544 7C7.49574 7 8.02391 6.82039 8.47315 6.48388C8.9224 6.14737 9.27254 5.66907 9.4793 5.10947C9.68607 4.54987 9.74017 3.9341 9.63476 3.34004C9.52935 2.74597 9.26917 2.20028 8.88712 1.77199C8.50507 1.34369 8.01831 1.05201 7.48839 0.933846C6.95847 0.815679 6.4092 0.876327 5.91002 1.10812C5.41085 1.33991 4.9842 1.73244 4.68403 2.23607C4.38385 2.73969 4.22363 3.3318 4.22363 3.9375C4.22363 4.74973 4.51145 5.52869 5.02376 6.10302C5.53607 6.67735 6.23092 7 6.95544 7ZM6.95544 1.75C7.34137 1.75 7.71863 1.8783 8.03952 2.11866C8.36041 2.35903 8.61051 2.70067 8.7582 3.10038C8.90589 3.50009 8.94453 3.93993 8.86924 4.36426C8.79395 4.78859 8.6081 5.17837 8.33521 5.4843C8.06232 5.79022 7.71463 5.99856 7.33612 6.08297C6.95761 6.16737 6.56527 6.12405 6.20871 5.95849C5.85216 5.79292 5.54741 5.51254 5.333 5.15281C5.11859 4.79308 5.00415 4.37015 5.00415 3.9375C5.00415 3.35734 5.20973 2.80094 5.57567 2.39071C5.94161 1.98047 6.43793 1.75 6.95544 1.75Z" fill="#559767"/>
<path d="M7.34582 7.875H6.5653C5.42677 7.875 4.33487 8.38203 3.5298 9.28455C2.72474 10.1871 2.27246 11.4111 2.27246 12.6875C2.27246 12.8035 2.31358 12.9148 2.38676 12.9969C2.45995 13.0789 2.55922 13.125 2.66272 13.125H11.2484C11.3519 13.125 11.4512 13.0789 11.5244 12.9969C11.5975 12.9148 11.6387 12.8035 11.6387 12.6875C11.6387 11.4111 11.1864 10.1871 10.3813 9.28455C9.57625 8.38203 8.48435 7.875 7.34582 7.875ZM3.07639 12.25C3.17236 11.2878 3.5812 10.3989 4.2248 9.75328C4.8684 9.10764 5.70164 8.75046 6.5653 8.75H7.34582C8.20948 8.75046 9.04272 9.10764 9.68632 9.75328C10.3299 10.3989 10.7388 11.2878 10.8347 12.25H3.07639Z" fill="#559767"/>
</svg>
