<svg width="12" height="12" viewBox="0 0 12 12" fill="none" xmlns="http://www.w3.org/2000/svg">
<g clip-path="url(#clip0_157_5)">
<path d="M7.96908 0.461876C7.96908 0.207014 8.22101 0 8.53251 0C8.84401 0 9.09594 0.207014 9.09594 0.461876V2.48515C9.09594 2.74001 8.84401 2.94703 8.53251 2.94703C8.22101 2.94703 7.96908 2.74001 7.96908 2.48515V0.461876ZM6.45553 10.3175C6.37741 10.3175 6.37741 9.33127 6.45553 9.33127H7.9974C8.07551 9.33127 8.07551 10.3175 7.9974 10.3175H6.45553ZM1.54773 6.73187C1.46961 6.73187 1.46961 5.74563 1.54773 5.74563H3.08959C3.16771 5.74563 3.16771 6.73187 3.08959 6.73187H1.54773ZM4.00163 6.73187C3.92351 6.73187 3.92351 5.74563 4.00163 5.74563H5.54349C5.62161 5.74563 5.62161 6.73187 5.54349 6.73187H4.00163ZM6.45553 6.73187C6.37741 6.73187 6.37741 5.74563 6.45553 5.74563H7.9974C8.07551 5.74563 8.07551 6.73187 7.9974 6.73187H6.45553ZM8.91041 5.74563H10.4484C10.5265 5.74563 10.5265 6.73187 10.4484 6.73187H8.91041C8.83229 6.73187 8.83229 5.74563 8.91041 5.74563ZM1.54773 8.5247C1.46961 8.5247 1.46961 7.53845 1.54773 7.53845H3.08959C3.16771 7.53845 3.16771 8.5247 3.08959 8.5247H1.54773ZM4.00358 8.5247C3.92546 8.5247 3.92546 7.53845 4.00358 7.53845H5.54349C5.62161 7.53845 5.62161 8.5247 5.54349 8.5247H4.00358ZM6.45748 8.5247C6.37936 8.5247 6.37936 7.53845 6.45748 7.53845H7.9974C8.07551 7.53845 8.07551 8.5247 7.9974 8.5247H6.45748ZM8.91236 8.5247C8.83424 8.5247 8.83424 7.53845 8.91236 7.53845H10.4484C10.5265 7.53845 10.5265 8.5247 10.4484 8.5247H8.91236ZM1.54968 10.3175C1.47156 10.3175 1.47156 9.33127 1.54968 9.33127H3.08959C3.16771 9.33127 3.16771 10.3175 3.08959 10.3175H1.54968ZM4.00358 10.3175C3.92546 10.3175 3.92546 9.33127 4.00358 9.33127H5.54349C5.62161 9.33127 5.62161 10.3175 5.54349 10.3175H4.00358ZM2.89137 0.461876C2.89137 0.207014 3.1433 0 3.4548 0C3.76629 0 4.01823 0.207014 4.01823 0.461876V2.48515C4.01823 2.74001 3.76629 2.94703 3.4548 2.94703C3.1433 2.94703 2.89137 2.74001 2.89137 2.48515V0.461876ZM0.624949 4.24477H11.3731V2.09651C11.3723 2.02081 11.3422 1.94837 11.2891 1.89438C11.2626 1.86776 11.2311 1.84663 11.1964 1.83222C11.1617 1.81781 11.1246 1.81039 11.087 1.8104H10.0578C9.9749 1.8104 9.89542 1.77748 9.83682 1.71888C9.77822 1.66028 9.7453 1.5808 9.7453 1.49792C9.7453 1.41505 9.77822 1.33557 9.83682 1.27697C9.89542 1.21837 9.9749 1.18545 10.0578 1.18545H11.088C11.3294 1.18622 11.5606 1.28246 11.7313 1.45315C11.902 1.62384 11.9983 1.85512 11.999 2.09651V11.0889C11.9983 11.3303 11.902 11.5616 11.7313 11.7323C11.5606 11.903 11.3294 11.9992 11.088 12H0.911059C0.6695 11.9992 0.43807 11.9029 0.267353 11.732C0.0966355 11.5611 0.000514915 11.3295 0 11.088L0 2.09651C0.000772454 1.85512 0.0970068 1.62384 0.267696 1.45315C0.438386 1.28246 0.669668 1.18622 0.911059 1.18545H2.01155C2.05259 1.18545 2.09322 1.19353 2.13113 1.20924C2.16904 1.22494 2.20349 1.24796 2.23251 1.27697C2.26152 1.30599 2.28454 1.34043 2.30024 1.37835C2.31595 1.41626 2.32403 1.45689 2.32403 1.49792C2.32403 1.53896 2.31595 1.57959 2.30024 1.6175C2.28454 1.65541 2.26152 1.68986 2.23251 1.71888C2.20349 1.74789 2.16904 1.77091 2.13113 1.78661C2.09322 1.80232 2.05259 1.8104 2.01155 1.8104H0.911059C0.835362 1.81122 0.762923 1.84132 0.708927 1.89438C0.682305 1.92088 0.661181 1.95238 0.64677 1.98706C0.632358 2.02175 0.624943 2.05895 0.624949 2.09651V4.24477ZM11.3741 4.8707H0.624949V11.088C0.625773 11.1637 0.655869 11.2361 0.708927 11.2901C0.735426 11.3167 0.766925 11.3378 0.801614 11.3523C0.836302 11.3667 0.873496 11.3741 0.911059 11.3741H11.088C11.1637 11.3733 11.2361 11.3432 11.2901 11.2901C11.3167 11.2636 11.3378 11.2321 11.3523 11.1974C11.3667 11.1627 11.3741 11.1255 11.3741 11.088V4.8707ZM4.9244 1.8104C4.84153 1.8104 4.76205 1.77748 4.70345 1.71888C4.64485 1.66028 4.61193 1.5808 4.61193 1.49792C4.61193 1.41505 4.64485 1.33557 4.70345 1.27697C4.76205 1.21837 4.84153 1.18545 4.9244 1.18545H7.02287C7.0639 1.18545 7.10453 1.19353 7.14244 1.20924C7.18036 1.22494 7.2148 1.24796 7.24382 1.27697C7.27283 1.30599 7.29585 1.34043 7.31155 1.37835C7.32726 1.41626 7.33534 1.45689 7.33534 1.49792C7.33534 1.53896 7.32726 1.57959 7.31155 1.6175C7.29585 1.65541 7.27283 1.68986 7.24382 1.71888C7.2148 1.74789 7.18036 1.77091 7.14244 1.78661C7.10453 1.80232 7.0639 1.8104 7.02287 1.8104H4.9244Z" fill="#559767"/>
</g>
<defs>
<clipPath id="clip0_157_5">
<rect width="11.999" height="12" fill="white"/>
</clipPath>
</defs>
</svg>
