<svg width="12" height="12" viewBox="0 0 12 12" fill="none" xmlns="http://www.w3.org/2000/svg">
<g clip-path="url(#clip0_161_90)">
<path d="M7.86345 0.461876C7.86345 0.207014 8.08818 0 8.36604 0C8.6439 0 8.86863 0.207014 8.86863 0.461876V2.48515C8.86863 2.74001 8.6439 2.94703 8.36604 2.94703C8.08818 2.94703 7.86345 2.74001 7.86345 2.48515V0.461876ZM6.51334 10.3175C6.44365 10.3175 6.44365 9.33127 6.51334 9.33127H7.88871C7.95839 9.33127 7.95839 10.3175 7.88871 10.3175H6.51334ZM2.13548 6.73187C2.0658 6.73187 2.0658 5.74563 2.13548 5.74563H3.51086C3.58054 5.74563 3.58054 6.73187 3.51086 6.73187H2.13548ZM4.32441 6.73187C4.25473 6.73187 4.25473 5.74563 4.32441 5.74563H5.69978C5.76947 5.74563 5.76947 6.73187 5.69978 6.73187H4.32441ZM6.51334 6.73187C6.44365 6.73187 6.44365 5.74563 6.51334 5.74563H7.88871C7.95839 5.74563 7.95839 6.73187 7.88871 6.73187H6.51334ZM8.70313 5.74563H10.075C10.1447 5.74563 10.1447 6.73187 10.075 6.73187H8.70313C8.63345 6.73187 8.63345 5.74563 8.70313 5.74563ZM2.13548 8.5247C2.0658 8.5247 2.0658 7.53845 2.13548 7.53845H3.51086C3.58054 7.53845 3.58054 8.5247 3.51086 8.5247H2.13548ZM4.32615 8.5247C4.25647 8.5247 4.25647 7.53845 4.32615 7.53845H5.69978C5.76947 7.53845 5.76947 8.5247 5.69978 8.5247H4.32615ZM6.51508 8.5247C6.44539 8.5247 6.44539 7.53845 6.51508 7.53845H7.88871C7.95839 7.53845 7.95839 8.5247 7.88871 8.5247H6.51508ZM8.70487 8.5247C8.63519 8.5247 8.63519 7.53845 8.70487 7.53845H10.075C10.1447 7.53845 10.1447 8.5247 10.075 8.5247H8.70487ZM2.13723 10.3175C2.06754 10.3175 2.06754 9.33127 2.13723 9.33127H3.51086C3.58054 9.33127 3.58054 10.3175 3.51086 10.3175H2.13723ZM4.32615 10.3175C4.25647 10.3175 4.25647 9.33127 4.32615 9.33127H5.69978C5.76947 9.33127 5.76947 10.3175 5.69978 10.3175H4.32615ZM3.33404 0.461876C3.33404 0.207014 3.55876 0 3.83663 0C4.11449 0 4.33922 0.207014 4.33922 0.461876V2.48515C4.33922 2.74001 4.11449 2.94703 3.83663 2.94703C3.55876 2.94703 3.33404 2.74001 3.33404 2.48515V0.461876ZM1.31235 4.24477H10.8999V2.09651C10.8992 2.02081 10.8723 1.94837 10.825 1.89438C10.8014 1.86776 10.7733 1.84663 10.7423 1.83222C10.7114 1.81781 10.6782 1.81039 10.6447 1.8104H9.72661C9.65268 1.8104 9.58179 1.77748 9.52951 1.71888C9.47724 1.66028 9.44787 1.5808 9.44787 1.49792C9.44787 1.41505 9.47724 1.33557 9.52951 1.27697C9.58179 1.21837 9.65268 1.18545 9.72661 1.18545H10.6456C10.8609 1.18622 11.0672 1.28246 11.2194 1.45315C11.3717 1.62384 11.4575 1.85512 11.4582 2.09651V11.0889C11.4575 11.3303 11.3717 11.5616 11.2194 11.7323C11.0672 11.903 10.8609 11.9992 10.6456 12H1.56756C1.35209 11.9992 1.14565 11.9029 0.993366 11.732C0.841084 11.5611 0.755342 11.3295 0.754883 11.088V2.09651C0.755572 1.85512 0.841415 1.62384 0.993673 1.45315C1.14593 1.28246 1.35224 1.18622 1.56756 1.18545H2.54923C2.58583 1.18545 2.62208 1.19353 2.65589 1.20924C2.68971 1.22494 2.72044 1.24796 2.74632 1.27697C2.7722 1.30599 2.79274 1.34043 2.80674 1.37835C2.82075 1.41626 2.82796 1.45689 2.82796 1.49792C2.82796 1.53896 2.82075 1.57959 2.80674 1.6175C2.79274 1.65541 2.7722 1.68986 2.74632 1.71888C2.72044 1.74789 2.68971 1.77091 2.65589 1.78661C2.62208 1.80232 2.58583 1.8104 2.54923 1.8104H1.56756C1.50004 1.81122 1.43542 1.84132 1.38726 1.89438C1.36351 1.92088 1.34467 1.95238 1.33181 1.98706C1.31896 2.02175 1.31234 2.05895 1.31235 2.09651V4.24477ZM10.9008 4.8707H1.31235V11.088C1.31308 11.1637 1.33993 11.2361 1.38726 11.2901C1.4109 11.3167 1.43899 11.3378 1.46994 11.3523C1.50088 11.3667 1.53406 11.3741 1.56756 11.3741H10.6456C10.7131 11.3733 10.7777 11.3432 10.8259 11.2901C10.8496 11.2636 10.8685 11.2321 10.8813 11.1974C10.8942 11.1627 10.9008 11.1255 10.9008 11.088V4.8707ZM5.14754 1.8104C5.07362 1.8104 5.00272 1.77748 4.95045 1.71888C4.89818 1.66028 4.86881 1.5808 4.86881 1.49792C4.86881 1.41505 4.89818 1.33557 4.95045 1.27697C5.00272 1.21837 5.07362 1.18545 5.14754 1.18545H7.01941C7.05601 1.18545 7.09226 1.19353 7.12608 1.20924C7.15989 1.22494 7.19062 1.24796 7.2165 1.27697C7.24239 1.30599 7.26292 1.34043 7.27693 1.37835C7.29093 1.41626 7.29814 1.45689 7.29814 1.49792C7.29814 1.53896 7.29093 1.57959 7.27693 1.6175C7.26292 1.65541 7.24239 1.68986 7.2165 1.71888C7.19062 1.74789 7.15989 1.77091 7.12608 1.78661C7.09226 1.80232 7.05601 1.8104 7.01941 1.8104H5.14754Z" fill="#559767"/>
</g>
<defs>
<clipPath id="clip0_161_90">
<rect width="10.7034" height="12" fill="white" transform="translate(0.754883)"/>
</clipPath>
</defs>
</svg>
