<svg width="12" height="12" viewBox="0 0 12 12" fill="none" xmlns="http://www.w3.org/2000/svg">
<g clip-path="url(#clip0_270_904)">
<path d="M7.8654 0.461876C7.8654 0.207014 8.09013 0 8.36799 0C8.64585 0 8.87058 0.207014 8.87058 0.461876V2.48515C8.87058 2.74001 8.64585 2.94703 8.36799 2.94703C8.09013 2.94703 7.8654 2.74001 7.8654 2.48515V0.461876ZM6.51529 10.3175C6.4456 10.3175 6.4456 9.33127 6.51529 9.33127H7.89066C7.96034 9.33127 7.96034 10.3175 7.89066 10.3175H6.51529ZM2.13744 6.73187C2.06775 6.73187 2.06775 5.74563 2.13744 5.74563H3.51281C3.58249 5.74563 3.58249 6.73187 3.51281 6.73187H2.13744ZM4.32636 6.73187C4.25668 6.73187 4.25668 5.74563 4.32636 5.74563H5.70174C5.77142 5.74563 5.77142 6.73187 5.70174 6.73187H4.32636ZM6.51529 6.73187C6.4456 6.73187 6.4456 5.74563 6.51529 5.74563H7.89066C7.96034 5.74563 7.96034 6.73187 7.89066 6.73187H6.51529ZM8.70508 5.74563H10.077C10.1467 5.74563 10.1467 6.73187 10.077 6.73187H8.70508C8.6354 6.73187 8.6354 5.74563 8.70508 5.74563ZM2.13744 8.5247C2.06775 8.5247 2.06775 7.53845 2.13744 7.53845H3.51281C3.58249 7.53845 3.58249 8.5247 3.51281 8.5247H2.13744ZM4.3281 8.5247C4.25842 8.5247 4.25842 7.53845 4.3281 7.53845H5.70174C5.77142 7.53845 5.77142 8.5247 5.70174 8.5247H4.3281ZM6.51703 8.5247C6.44735 8.5247 6.44735 7.53845 6.51703 7.53845H7.89066C7.96034 7.53845 7.96034 8.5247 7.89066 8.5247H6.51703ZM8.70683 8.5247C8.63714 8.5247 8.63714 7.53845 8.70683 7.53845H10.077C10.1467 7.53845 10.1467 8.5247 10.077 8.5247H8.70683ZM2.13918 10.3175C2.06949 10.3175 2.06949 9.33127 2.13918 9.33127H3.51281C3.58249 9.33127 3.58249 10.3175 3.51281 10.3175H2.13918ZM4.3281 10.3175C4.25842 10.3175 4.25842 9.33127 4.3281 9.33127H5.70174C5.77142 9.33127 5.77142 10.3175 5.70174 10.3175H4.3281ZM3.33599 0.461876C3.33599 0.207014 3.56072 0 3.83858 0C4.11644 0 4.34117 0.207014 4.34117 0.461876V2.48515C4.34117 2.74001 4.11644 2.94703 3.83858 2.94703C3.56072 2.94703 3.33599 2.74001 3.33599 2.48515V0.461876ZM1.3143 4.24477H10.9018V2.09651C10.9011 2.02081 10.8743 1.94837 10.8269 1.89438C10.8033 1.86776 10.7752 1.84663 10.7443 1.83222C10.7133 1.81781 10.6801 1.81039 10.6466 1.8104H9.72856C9.65463 1.8104 9.58374 1.77748 9.53146 1.71888C9.47919 1.66028 9.44983 1.5808 9.44983 1.49792C9.44983 1.41505 9.47919 1.33557 9.53146 1.27697C9.58374 1.21837 9.65463 1.18545 9.72856 1.18545H10.6475C10.8628 1.18622 11.0691 1.28246 11.2214 1.45315C11.3737 1.62384 11.4595 1.85512 11.4602 2.09651V11.0889C11.4595 11.3303 11.3737 11.5616 11.2214 11.7323C11.0691 11.903 10.8628 11.9992 10.6475 12H1.56952C1.35404 11.9992 1.1476 11.9029 0.99532 11.732C0.843037 11.5611 0.757295 11.3295 0.756836 11.088V2.09651C0.757525 1.85512 0.843368 1.62384 0.995626 1.45315C1.14788 1.28246 1.35419 1.18622 1.56952 1.18545H2.55118C2.58778 1.18545 2.62403 1.19353 2.65785 1.20924C2.69166 1.22494 2.72239 1.24796 2.74827 1.27697C2.77416 1.30599 2.79469 1.34043 2.8087 1.37835C2.8227 1.41626 2.82991 1.45689 2.82991 1.49792C2.82991 1.53896 2.8227 1.57959 2.8087 1.6175C2.79469 1.65541 2.77416 1.68986 2.74827 1.71888C2.72239 1.74789 2.69166 1.77091 2.65785 1.78661C2.62403 1.80232 2.58778 1.8104 2.55118 1.8104H1.56952C1.50199 1.81122 1.43738 1.84132 1.38921 1.89438C1.36546 1.92088 1.34662 1.95238 1.33377 1.98706C1.32091 2.02175 1.3143 2.05895 1.3143 2.09651V4.24477ZM10.9027 4.8707H1.3143V11.088C1.31504 11.1637 1.34188 11.2361 1.38921 11.2901C1.41285 11.3167 1.44095 11.3378 1.47189 11.3523C1.50283 11.3667 1.53601 11.3741 1.56952 11.3741H10.6475C10.715 11.3733 10.7796 11.3432 10.8278 11.2901C10.8516 11.2636 10.8704 11.2321 10.8833 11.1974C10.8961 11.1627 10.9027 11.1255 10.9027 11.088V4.8707ZM5.1495 1.8104C5.07557 1.8104 5.00467 1.77748 4.9524 1.71888C4.90013 1.66028 4.87076 1.5808 4.87076 1.49792C4.87076 1.41505 4.90013 1.33557 4.9524 1.27697C5.00467 1.21837 5.07557 1.18545 5.1495 1.18545H7.02136C7.05797 1.18545 7.09421 1.19353 7.12803 1.20924C7.16185 1.22494 7.19257 1.24796 7.21846 1.27697C7.24434 1.30599 7.26487 1.34043 7.27888 1.37835C7.29289 1.41626 7.3001 1.45689 7.3001 1.49792C7.3001 1.53896 7.29289 1.57959 7.27888 1.6175C7.26487 1.65541 7.24434 1.68986 7.21846 1.71888C7.19257 1.74789 7.16185 1.77091 7.12803 1.78661C7.09421 1.80232 7.05797 1.8104 7.02136 1.8104H5.1495Z" fill="#559767"/>
</g>
<defs>
<clipPath id="clip0_270_904">
<rect width="10.7034" height="12" fill="white" transform="translate(0.756836)"/>
</clipPath>
</defs>
</svg>
