<svg width="18" height="18" viewBox="0 0 18 18" fill="none" xmlns="http://www.w3.org/2000/svg">
<g clip-path="url(#clip0_153_84)">
<path d="M11.9536 0.692815C11.9536 0.310522 12.3315 0 12.7988 0C13.266 0 13.6439 0.310522 13.6439 0.692815V3.72772C13.6439 4.11002 13.266 4.42054 12.7988 4.42054C12.3315 4.42054 11.9536 4.11002 11.9536 3.72772V0.692815ZM9.68329 15.4763C9.56612 15.4763 9.56612 13.9969 9.68329 13.9969H11.9961C12.1133 13.9969 12.1133 15.4763 11.9961 15.4763H9.68329ZM2.32159 10.0978C2.20441 10.0978 2.20441 8.61844 2.32159 8.61844H4.63439C4.75157 8.61844 4.75157 10.0978 4.63439 10.0978H2.32159ZM6.00244 10.0978C5.88526 10.0978 5.88526 8.61844 6.00244 8.61844H8.31524C8.43242 8.61844 8.43242 10.0978 8.31524 10.0978H6.00244ZM9.68329 10.0978C9.56612 10.0978 9.56612 8.61844 9.68329 8.61844H11.9961C12.1133 8.61844 12.1133 10.0978 11.9961 10.0978H9.68329ZM13.3656 8.61844H15.6726C15.7897 8.61844 15.7897 10.0978 15.6726 10.0978H13.3656C13.2484 10.0978 13.2484 8.61844 13.3656 8.61844ZM2.32159 12.787C2.20441 12.787 2.20441 11.3077 2.32159 11.3077H4.63439C4.75157 11.3077 4.75157 12.787 4.63439 12.787H2.32159ZM6.00537 12.787C5.88819 12.787 5.88819 11.3077 6.00537 11.3077H8.31524C8.43242 11.3077 8.43242 12.787 8.31524 12.787H6.00537ZM9.68622 12.787C9.56904 12.787 9.56904 11.3077 9.68622 11.3077H11.9961C12.1133 11.3077 12.1133 12.787 11.9961 12.787H9.68622ZM13.3685 12.787C13.2514 12.787 13.2514 11.3077 13.3685 11.3077H15.6726C15.7897 11.3077 15.7897 12.787 15.6726 12.787H13.3685ZM2.32452 15.4763C2.20734 15.4763 2.20734 13.9969 2.32452 13.9969H4.63439C4.75157 13.9969 4.75157 15.4763 4.63439 15.4763H2.32452ZM6.00537 15.4763C5.88819 15.4763 5.88819 13.9969 6.00537 13.9969H8.31524C8.43242 13.9969 8.43242 15.4763 8.31524 15.4763H6.00537ZM4.33705 0.692815C4.33705 0.310522 4.71495 0 5.1822 0C5.64944 0 6.02734 0.310522 6.02734 0.692815V3.72772C6.02734 4.11002 5.64944 4.42054 5.1822 4.42054C4.71495 4.42054 4.33705 4.11002 4.33705 3.72772V0.692815ZM0.937424 6.36716H17.0596V3.14476C17.0584 3.03122 17.0133 2.92256 16.9337 2.84157C16.8939 2.80163 16.8467 2.76995 16.7946 2.74833C16.7426 2.72671 16.6868 2.71559 16.6305 2.7156H15.0867C14.9624 2.7156 14.8431 2.66622 14.7552 2.57832C14.6673 2.49042 14.6179 2.3712 14.6179 2.24689C14.6179 2.12258 14.6673 2.00336 14.7552 1.91546C14.8431 1.82756 14.9624 1.77818 15.0867 1.77818H16.6319C16.994 1.77933 17.341 1.92369 17.597 2.17972C17.853 2.43575 17.9974 2.78268 17.9985 3.14476V16.6334C17.9974 16.9955 17.853 17.3424 17.597 17.5985C17.341 17.8545 16.994 17.9988 16.6319 18H1.36659C1.00425 17.9988 0.657105 17.8543 0.401029 17.5979C0.144953 17.3416 0.000772372 16.9943 0 16.6319L0 3.14476C0.00115868 2.78268 0.14551 2.43575 0.401544 2.17972C0.657579 1.92369 1.0045 1.77933 1.36659 1.77818H3.01733C3.07888 1.77818 3.13983 1.7903 3.1967 1.81385C3.25357 1.83741 3.30524 1.87193 3.34876 1.91546C3.39229 1.95898 3.42681 2.01065 3.45037 2.06752C3.47392 2.12439 3.48604 2.18534 3.48604 2.24689C3.48604 2.30844 3.47392 2.36939 3.45037 2.42626C3.42681 2.48312 3.39229 2.53479 3.34876 2.57832C3.30524 2.62184 3.25357 2.65637 3.1967 2.67992C3.13983 2.70348 3.07888 2.7156 3.01733 2.7156H1.36659C1.25304 2.71684 1.14438 2.76198 1.06339 2.84157C1.02346 2.88132 0.991772 2.92856 0.970154 2.9806C0.948537 3.03263 0.937414 3.08842 0.937424 3.14476V6.36716ZM17.0611 7.30605H0.937424V16.6319C0.93866 16.7455 0.983803 16.8542 1.06339 16.9351C1.10314 16.9751 1.15039 17.0068 1.20242 17.0284C1.25445 17.05 1.31024 17.0611 1.36659 17.0611H16.6319C16.7455 17.0599 16.8542 17.0147 16.9351 16.9351C16.9751 16.8954 17.0068 16.8481 17.0284 16.7961C17.05 16.7441 17.0611 16.6883 17.0611 16.6319V7.30605ZM7.38661 2.7156C7.2623 2.7156 7.14308 2.66622 7.05518 2.57832C6.96728 2.49042 6.91789 2.3712 6.91789 2.24689C6.91789 2.12258 6.96728 2.00336 7.05518 1.91546C7.14308 1.82756 7.2623 1.77818 7.38661 1.77818H10.5343C10.5958 1.77818 10.6568 1.7903 10.7137 1.81385C10.7705 1.83741 10.8222 1.87193 10.8657 1.91546C10.9093 1.95898 10.9438 2.01065 10.9673 2.06752C10.9909 2.12439 11.003 2.18534 11.003 2.24689C11.003 2.30844 10.9909 2.36939 10.9673 2.42626C10.9438 2.48312 10.9093 2.53479 10.8657 2.57832C10.8222 2.62184 10.7705 2.65637 10.7137 2.67992C10.6568 2.70348 10.5958 2.7156 10.5343 2.7156H7.38661Z" fill="#559767"/>
</g>
<defs>
<clipPath id="clip0_153_84">
<rect width="17.9985" height="18" fill="white"/>
</clipPath>
</defs>
</svg>
