<svg width="369" height="126" viewBox="0 0 369 126" fill="none" xmlns="http://www.w3.org/2000/svg">
<path d="M1.5365 125.268L7.47073 119.451H11.0737H15.7363C15.7363 117.952 15.7363 114.215 15.7363 111.253C15.7363 108.291 21.5292 104.73 24.4257 103.319H30.9957V107.55L35.0225 111.253V107.55L38.6255 103.319L43.2881 95.9148L47.9507 91.6836H50.9178L58.5475 83.4858C58.6182 80.7531 59.3105 76.9274 61.5147 83.4858C63.7188 90.0441 67.3782 94.5044 68.9325 95.9148L73.1712 103.319H80.8009V95.9148L88.4307 91.6836L95.4246 83.4858V78.4612H98.3917L106.021 63.1233L111.744 51.2231H121.705L125.943 44.6119L131.242 39.5874L135.269 32.1829L138.236 23.4561V18.4316L145.866 8.91149L150.528 2.30029L155.827 8.91149L161.761 18.4316L172.146 23.4561L177.02 32.1829V35.8852L181.683 51.2231H190.372H196.307L204.572 57.041L211.566 63.1233H215.593H223.223H229.793H236.151L249.715 78.4612L256.709 83.4858L270.061 87.188H273.664L281.293 83.4858L290.619 78.4612H296.553C297.542 78.902 299.986 80.5239 301.851 83.4858C306.938 90.0441 313.72 91.6836 316.475 91.6836H324.105H328.131L338.092 87.188H347.63H354.623V83.4858C355.613 83.2213 357.93 83.5915 359.286 87.188C360.642 90.7845 365.644 94.5044 367.976 95.9148" stroke="#559767" stroke-width="2"/>
</svg>
